<svg width="36" height="36" viewBox="0 0 36 36" fill="none" xmlns="http://www.w3.org/2000/svg">
<path d="M12.5664 30C12.3604 30.001 12.1563 29.9608 11.9661 29.8818C11.7758 29.8028 11.6032 29.6867 11.4585 29.5401C11.1649 29.2461 11 28.8477 11 28.4322C11 28.0168 11.1649 27.6183 11.4585 27.3243L20.8024 17.9804L11.4585 8.63655C11.1816 8.33935 11.0308 7.94627 11.038 7.54011C11.0451 7.13395 11.2097 6.74643 11.4969 6.45919C11.7842 6.17195 12.1717 6.00741 12.5778 6.00024C12.984 5.99308 13.3771 6.14384 13.6743 6.42077L24.1261 16.8726C24.4196 17.1665 24.5846 17.565 24.5846 17.9804C24.5846 18.3959 24.4196 18.7944 24.1261 19.0883L13.6743 29.5401C13.5295 29.6867 13.357 29.8028 13.1667 29.8818C12.9765 29.9608 12.7724 30.001 12.5664 30Z" fill="black"/>
</svg>
