<svg width="36" height="36" viewBox="0 0 36 36" fill="none" xmlns="http://www.w3.org/2000/svg">
<path d="M23.4336 30C23.6396 30.001 23.8437 29.9608 24.0339 29.8818C24.2242 29.8028 24.3968 29.6867 24.5415 29.5401C24.8351 29.2461 25 28.8477 25 28.4322C25 28.0168 24.8351 27.6183 24.5415 27.3243L15.1976 17.9804L24.5415 8.63655C24.8184 8.33935 24.9692 7.94627 24.962 7.54011C24.9549 7.13395 24.7903 6.74643 24.5031 6.45919C24.2158 6.17195 23.8283 6.00741 23.4222 6.00024C23.016 5.99308 22.6229 6.14384 22.3257 6.42077L11.8739 16.8726C11.5804 17.1665 11.4154 17.565 11.4154 17.9804C11.4154 18.3959 11.5804 18.7944 11.8739 19.0883L22.3257 29.5401C22.4705 29.6867 22.643 29.8028 22.8333 29.8818C23.0235 29.9608 23.2276 30.001 23.4336 30Z" fill="black"/>
</svg>
