<svg width="23" height="24" viewBox="0 0 23 24" fill="none" xmlns="http://www.w3.org/2000/svg">
<path d="M22.4122 12C22.4122 18.3831 17.5783 23.5 11.6841 23.5C5.78997 23.5 0.956055 18.3831 0.956055 12C0.956055 5.61689 5.78997 0.5 11.6841 0.5C17.5783 0.5 22.4122 5.61689 22.4122 12Z" fill="white" stroke="#DFDFDF"/>
<g clip-path="url(#clip0_315_2146)">
<path d="M20.072 12.2106C20.072 11.5891 20.0249 10.9642 19.9243 10.3528H11.8552V13.8735H16.476C16.2843 15.009 15.6682 16.0135 14.766 16.6518V18.9363H17.5228C19.1416 17.3439 20.072 14.9922 20.072 12.2106Z" fill="#4285F4"/>
<path d="M11.8552 21.1436C14.1624 21.1436 16.1082 20.3339 17.5258 18.9364L14.7691 16.6519C14.0021 17.2096 13.0119 17.5254 11.8583 17.5254C9.6265 17.5254 7.73418 15.9162 7.05521 13.7527H4.21045V16.1077C5.66269 19.1951 8.62062 21.1436 11.8552 21.1436V21.1436Z" fill="#34A853"/>
<path d="M7.05217 13.7527C6.69382 12.6172 6.69382 11.3876 7.05217 10.2521V7.89709H4.21055C2.9972 10.4805 2.9972 13.5242 4.21055 16.1077L7.05217 13.7527V13.7527Z" fill="#FBBC04"/>
<path d="M11.8552 6.47597C13.0748 6.45581 14.2536 6.9463 15.1369 7.84664L17.5793 5.23631C16.0327 3.68423 13.9801 2.83092 11.8552 2.85779C8.62062 2.85779 5.66269 4.8063 4.21045 7.89703L7.05207 10.252C7.7279 8.08516 9.62336 6.47597 11.8552 6.47597V6.47597Z" fill="#EA4335"/>
</g>
<defs>
<clipPath id="clip0_315_2146">
<rect width="17.1094" height="18.2857" fill="white" transform="translate(3.12939 2.85718)"/>
</clipPath>
</defs>
</svg>
