<svg width="36" height="36" viewBox="0 0 36 36" fill="none" xmlns="http://www.w3.org/2000/svg">
<path d="M18.0002 29.625C17.7019 29.6247 17.416 29.506 17.2052 29.295L7.05018 19.11C5.67598 17.708 4.90625 15.8231 4.90625 13.86C4.90625 11.8968 5.67598 10.0119 7.05018 8.60997C8.44261 7.21767 10.3311 6.4355 12.3002 6.4355C14.2693 6.4355 16.1577 7.21767 17.5502 8.60997L18.0002 8.99997L18.4202 8.57997C19.1086 7.88396 19.9287 7.3319 20.8326 6.95591C21.7365 6.57993 22.7062 6.38755 23.6852 6.38997C24.6631 6.38559 25.6321 6.57561 26.536 6.94899C27.4398 7.32238 28.2605 7.87168 28.9502 8.56497C30.3244 9.96693 31.0941 11.8518 31.0941 13.815C31.0941 15.7781 30.3244 17.663 28.9502 19.065L18.7952 29.25C18.6946 29.3626 18.5724 29.4539 18.4358 29.5183C18.2992 29.5828 18.1511 29.619 18.0002 29.625ZM12.3152 8.62497C11.6339 8.62001 10.9584 8.75 10.3277 9.00746C9.69692 9.26491 9.12339 9.64472 8.64018 10.125C7.66649 11.1032 7.11985 12.4272 7.11985 13.8075C7.11985 15.1877 7.66649 16.5117 8.64018 17.49L18.0002 26.91L27.3452 17.52C27.8291 17.0366 28.213 16.4625 28.4749 15.8306C28.7369 15.1988 28.8717 14.5215 28.8717 13.8375C28.8717 13.1535 28.7369 12.4762 28.4749 11.8443C28.213 11.2124 27.8291 10.6384 27.3452 10.155C26.8657 9.67381 26.295 9.29327 25.6665 9.03569C25.038 8.77811 24.3644 8.64867 23.6852 8.65497C23.0039 8.65001 22.3284 8.78 21.6977 9.03746C21.0669 9.29491 20.4934 9.67472 20.0102 10.155L18.7952 11.37C18.5806 11.5736 18.296 11.6871 18.0002 11.6871C17.7043 11.6871 17.4198 11.5736 17.2052 11.37L15.9902 10.155C15.5094 9.6693 14.937 9.28396 14.3062 9.02131C13.6753 8.75866 12.9985 8.62394 12.3152 8.62497Z" fill="#363636"/>
</svg>
