<svg width="36" height="36" viewBox="0 0 36 36" fill="none" xmlns="http://www.w3.org/2000/svg">
<path d="M18.0002 29.625C17.7019 29.6248 17.416 29.5061 17.2052 29.295L7.05018 19.11C5.67598 17.7081 4.90625 15.8232 4.90625 13.86C4.90625 11.8969 5.67598 10.012 7.05018 8.61003C8.44261 7.21773 10.3311 6.43556 12.3002 6.43556C14.2693 6.43556 16.1577 7.21773 17.5502 8.61003L18.0002 9.00003L18.4202 8.58003C19.1086 7.88403 19.9287 7.33196 20.8326 6.95598C21.7365 6.57999 22.7062 6.38761 23.6852 6.39003C24.6631 6.38565 25.6321 6.57567 26.536 6.94905C27.4398 7.32244 28.2605 7.87174 28.9502 8.56503C30.3244 9.96699 31.0941 11.8519 31.0941 13.815C31.0941 15.7782 30.3244 17.6631 28.9502 19.065L18.7952 29.25C18.6946 29.3627 18.5724 29.454 18.4358 29.5184C18.2992 29.5828 18.1511 29.6191 18.0002 29.625Z" fill="#FC5555"/>
</svg>
