<svg width="32" height="32" viewBox="0 0 32 32" fill="none" xmlns="http://www.w3.org/2000/svg">
<path d="M22.0002 4.00003H5.00021C4.44793 4.00003 4.00021 4.44775 4.00021 5.00003C4.00021 5.55232 4.44793 6.00003 5.00021 6.00003H22.0002C22.4019 5.99836 22.7695 6.1497 22.7695 6.1497C23.137 6.30105 23.4181 6.58213 23.4181 6.58213C23.6992 6.86321 23.8505 7.23077 23.8505 7.23077C24.0019 7.59834 24.0002 7.99584 24.0002 7.99584L24.0002 22C24.0002 22.5523 24.4479 23 25.0002 23C25.5525 23 26.0002 22.5523 26.0002 22L26.0002 8.00422C26.0035 7.20672 25.6999 6.46928 25.6999 6.46928C25.3962 5.73184 24.8323 5.16792 24.8323 5.16792C24.2684 4.60399 23.531 4.30035 23.531 4.30035C22.7935 3.9967 22.0002 4.00003 22.0002 4.00003Z" fill="#363636"/>
<path d="M13.0002 14H21.0002C21.5525 14 22.0002 13.5523 22.0002 13C22.0002 12.4477 21.5525 12 21.0002 12H13.0002C12.4479 12 12.0002 12.4477 12.0002 13C12.0002 13.5523 12.4479 14 13.0002 14Z" fill="#363636"/>
<path d="M13.0002 18H21.0002C21.5525 18 22.0002 17.5523 22.0002 17C22.0002 16.4477 21.5525 16 21.0002 16H13.0002C12.4479 16 12.0002 16.4477 12.0002 17C12.0002 17.5523 12.4479 18 13.0002 18Z" fill="#363636"/>
<path fill-rule="evenodd" clip-rule="evenodd" d="M10.5254 27.9702C10.5254 27.9702 10.7415 27.996 10.9547 27.999C10.9699 27.9997 10.985 28 11.0002 28H25.0002C25.0002 28 26.1831 28.0006 27.1762 27.3573C27.1762 27.3573 28.1694 26.714 28.6527 25.6339C28.6527 25.6339 29.1361 24.5538 28.954 23.3846C28.954 23.3846 28.7719 22.2154 27.9831 21.3334C27.7934 21.1213 27.5223 21 27.2377 21H13.2377C12.6854 21 12.2377 21.4478 12.2377 22C12.2377 22.2458 12.3282 22.4829 12.4919 22.6662C12.4919 22.6662 12.8206 23.0342 12.9404 23.5128C12.9404 23.5128 13.0602 23.9915 12.9436 24.4709C12.9436 24.4709 12.827 24.9504 12.5008 25.3206C12.5008 25.3206 12.1746 25.6908 11.7137 25.8669C11.7137 25.8669 11.2527 26.0429 10.7628 25.9843C10.7628 25.9843 10.2729 25.9257 9.86641 25.646C9.86641 25.646 9.45994 25.3663 9.23021 24.9296C9.23021 24.9296 9.00048 24.4929 9.00022 23.9995V8.00005C9.00022 8.00005 8.99969 7.01267 8.54023 6.13932C8.54023 6.13932 8.08078 5.26596 7.26784 4.70652C7.26784 4.70652 6.4549 4.14707 5.47504 4.02993C5.47504 4.02993 4.49518 3.91279 3.57327 4.26483C3.57327 4.26483 2.65136 4.61687 1.99898 5.3573C1.99898 5.3573 1.34659 6.09774 1.11345 7.05664C1.11345 7.05664 0.880307 8.01554 1.11991 8.97285C1.11991 8.97285 1.35952 9.93016 2.01688 10.6662C2.20661 10.8786 2.4779 11 2.76272 11C2.77841 11 2.7941 10.9997 2.80977 10.9989C3.03906 10.9881 3.25765 10.8988 3.42885 10.7459C3.64127 10.5562 3.76272 10.2849 3.76272 10C3.76272 9.98435 3.76235 9.96866 3.76161 9.95299C3.75081 9.7237 3.66145 9.50511 3.50855 9.33391C3.50855 9.33391 3.17987 8.9659 3.06006 8.48725C3.06006 8.48725 2.94026 8.0086 3.05683 7.52915C3.05683 7.52915 3.1734 7.04969 3.4996 6.67948C3.4996 6.67948 3.82579 6.30926 4.28674 6.13324C4.28674 6.13324 4.7477 5.95722 5.23763 6.01579C5.23763 6.01579 5.72756 6.07436 6.13403 6.35408C6.13403 6.35408 6.5405 6.6338 6.77022 7.07048C6.77022 7.07048 6.99995 7.50716 7.00022 8.00005V24.0006C7.00022 24.0006 7.00074 24.9874 7.4602 25.8608C7.4602 25.8608 7.91965 26.7341 8.73259 27.2936C8.73259 27.2936 9.54553 27.853 10.5254 27.9702ZM25.0002 26H14.4653C14.4653 26 14.7493 25.5099 14.887 24.9434C14.887 24.9434 15.1201 23.9845 14.8805 23.0272L14.8736 23H26.7354C26.7354 23 26.9193 23.3165 26.9778 23.6923C26.9778 23.6923 27.0689 24.2769 26.8272 24.817C26.8272 24.817 26.5855 25.357 26.0889 25.6787C26.0889 25.6787 25.5923 26.0003 25.0002 26Z" fill="#363636"/>
</svg>
