<svg width="26" height="26" viewBox="0 0 26 26" fill="none" xmlns="http://www.w3.org/2000/svg">
<path fill-rule="evenodd" clip-rule="evenodd" d="M2.20345 11.1216C2.20345 6.19623 6.19626 2.20342 11.1216 2.20342C16.047 2.20342 20.0398 6.19623 20.0398 11.1216C20.0398 16.047 16.047 20.0398 11.1216 20.0398C6.19626 20.0398 2.20345 16.047 2.20345 11.1216ZM11.1216 -2.76566e-05C4.97933 -2.76566e-05 0 4.9793 0 11.1216C0 17.2639 4.97933 22.2433 11.1216 22.2433C13.796 22.2433 16.2499 21.2993 18.1684 19.7264L24.1192 25.6773C24.5495 26.1075 25.2471 26.1075 25.6773 25.6773C26.1076 25.247 26.1076 24.5495 25.6773 24.1192L19.7264 18.1683C21.2993 16.2499 22.2433 13.796 22.2433 11.1216C22.2433 4.9793 17.264 -2.76566e-05 11.1216 -2.76566e-05Z" fill="#363636"/>
</svg>
