<svg width="42" height="42" viewBox="0 0 42 42" fill="none" xmlns="http://www.w3.org/2000/svg">
<circle cx="21" cy="21" r="20.5" fill="white" stroke="#DFDFDF"/>
<g clip-path="url(#clip0_165_246)">
<path d="M36.688 21.3685C36.688 20.2809 36.5998 19.1874 36.4117 18.1174H21.3199V24.2787H29.9623C29.6036 26.2658 28.4513 28.0237 26.764 29.1407V33.1385H31.92C34.9478 30.3518 36.688 26.2365 36.688 21.3685Z" fill="#4285F4"/>
<path d="M21.32 37.0011C25.6352 37.0011 29.2744 35.5842 31.9259 33.1385L26.7699 29.1407C25.3354 30.1167 23.4835 30.6693 21.3259 30.6693C17.1517 30.6693 13.6125 27.8532 12.3426 24.067H7.02197V28.1883C9.73812 33.5912 15.2704 37.0011 21.32 37.0011V37.0011Z" fill="#34A853"/>
<path d="M12.3367 24.0671C11.6664 22.0799 11.6664 19.9282 12.3367 17.941V13.8198H7.02195C4.75261 18.3408 4.75261 23.6673 7.02195 28.1883L12.3367 24.0671V24.0671Z" fill="#FBBC04"/>
<path d="M21.32 11.3329C23.6011 11.2976 25.8057 12.156 27.4578 13.7316L32.0258 9.16349C29.1333 6.44734 25.2942 4.95405 21.32 5.00108C15.2704 5.00108 9.73812 8.41096 7.02197 13.8197L12.3367 17.941C13.6007 14.149 17.1458 11.3329 21.32 11.3329V11.3329Z" fill="#EA4335"/>
</g>
<defs>
<clipPath id="clip0_165_246">
<rect width="32" height="32" fill="white" transform="translate(5 5)"/>
</clipPath>
</defs>
</svg>
