<svg width="42" height="42" viewBox="0 0 42 42" fill="none" xmlns="http://www.w3.org/2000/svg">
<g clip-path="url(#clip0_164_121)">
<path d="M21.0014 0H20.9986C9.40138 0 0 9.40138 0 20.9986V21.0014C0 32.5986 9.40138 42 20.9986 42H21.0014C32.5986 42 42 32.5986 42 21.0014V20.9986C42 9.40138 32.5986 0 21.0014 0Z" fill="#FAE100"/>
<path d="M20.9587 7.70215C12.627 7.70215 5.87341 13.0401 5.87341 19.6285C5.87341 23.9154 8.73323 27.6724 13.0287 29.7746C12.7125 30.951 11.8864 34.0415 11.7212 34.7024C11.5161 35.5227 12.0203 35.5113 12.3536 35.292C12.6128 35.1182 16.4866 32.4834 18.1587 31.3469C19.0673 31.4808 20.0016 31.552 20.9587 31.552C29.2903 31.552 36.0439 26.2141 36.0439 19.6285C36.0439 13.0429 29.2903 7.70215 20.9587 7.70215Z" fill="#371D1E"/>
<path d="M10.4338 17.4324H11.9862C11.9862 17.4324 11.9947 21.6964 11.9862 22.6905C11.9862 23.4169 13.6012 23.4254 13.5984 22.7019L13.6041 17.4893C13.6041 17.4893 14.1253 17.4922 15.1479 17.4922C16.1135 17.4922 16.1135 15.974 15.1479 15.974C14.0598 15.974 10.4252 15.9426 10.4252 15.9426C9.51373 15.9426 9.51658 17.4324 10.4252 17.4324" fill="#FAE100"/>
<mask id="mask0_164_121" style="mask-type:luminance" maskUnits="userSpaceOnUse" x="9" y="15" width="7" height="9">
<path d="M10.4338 17.4324H11.9862C11.9862 17.4324 11.9947 21.6964 11.9862 22.6905C11.9862 23.4169 13.6012 23.4254 13.5984 22.7019L13.6041 17.4893C13.6041 17.4893 14.1253 17.4922 15.1479 17.4922C16.1135 17.4922 16.1135 15.974 15.1479 15.974C14.0598 15.974 10.4252 15.9426 10.4252 15.9426C9.51373 15.9426 9.51658 17.4324 10.4252 17.4324" fill="white"/>
</mask>
<g mask="url(#mask0_164_121)">
<path d="M16.1193 15.9426H9.52234V23.4254H16.1193V15.9426Z" fill="#FAE100"/>
</g>
<path d="M17.8653 17.7058L18.7284 20.4118H16.9282L17.8653 17.7058ZM16.8969 16.4382C16.5152 17.2785 15.1337 21.2521 14.6779 22.306C14.3475 23.0665 15.7746 23.6875 16.105 22.9269L16.4155 21.8417H19.2554C19.2554 21.8417 19.1585 21.8873 19.5345 22.8814C19.8393 23.6875 21.3148 23.1292 21.01 22.3231C20.5742 21.1723 19.0645 17.025 18.7882 16.4382C18.6629 16.1676 18.2071 15.9711 17.7656 15.9711C17.401 15.9711 17.045 16.105 16.894 16.4382" fill="#FAE100"/>
<mask id="mask1_164_121" style="mask-type:luminance" maskUnits="userSpaceOnUse" x="14" y="15" width="8" height="9">
<path d="M17.8653 17.7058L18.7284 20.4118H16.9282L17.8653 17.7058ZM16.8969 16.4382C16.5152 17.2785 15.1337 21.2521 14.6779 22.306C14.3475 23.0665 15.7746 23.6875 16.105 22.9269L16.4155 21.8417H19.2554C19.2554 21.8417 19.1585 21.8873 19.5345 22.8814C19.8393 23.6875 21.3148 23.1292 21.01 22.3231C20.5742 21.1723 19.0645 17.025 18.7882 16.4382C18.6629 16.1676 18.2071 15.9711 17.7656 15.9711C17.401 15.9711 17.045 16.105 16.894 16.4382" fill="white"/>
</mask>
<g mask="url(#mask1_164_121)">
<path d="M21.3177 15.9739H14.3447V23.6932H21.3177V15.9739Z" fill="#FAE100"/>
</g>
<path d="M21.5569 16.6861C21.5569 18.0362 21.5654 22.3886 21.5654 22.3886C21.5654 22.3886 21.4401 23.2545 22.1836 23.2545C22.927 23.2545 24.5705 23.246 25.2997 23.246C26.0289 23.246 26.0261 21.6936 25.2969 21.6936C24.5677 21.6936 23.2346 21.685 23.2346 21.685C23.2346 21.685 23.2403 17.6602 23.2375 16.6804C23.2375 16.2075 22.8159 15.9711 22.3972 15.9711C21.9785 15.9711 21.5541 16.2104 21.5569 16.6832" fill="#FAE100"/>
<mask id="mask2_164_121" style="mask-type:luminance" maskUnits="userSpaceOnUse" x="21" y="15" width="5" height="9">
<path d="M21.5569 16.6861C21.5569 18.0362 21.5654 22.3886 21.5654 22.3886C21.5654 22.3886 21.4401 23.2545 22.1836 23.2545C22.927 23.2545 24.5705 23.246 25.2997 23.246C26.0289 23.246 26.0261 21.6936 25.2969 21.6936C24.5677 21.6936 23.2346 21.685 23.2346 21.685C23.2346 21.685 23.2403 17.6602 23.2375 16.6804C23.2375 16.2075 22.8159 15.9711 22.3972 15.9711C21.9785 15.9711 21.5541 16.2104 21.5569 16.6832" fill="white"/>
</mask>
<g mask="url(#mask2_164_121)">
<path d="M26.0289 15.9739H21.4401V23.2545H26.0289V15.9739Z" fill="#FAE100"/>
</g>
<path d="M26.2226 16.4724C26.2397 17.0649 26.2026 22.4199 26.2026 22.8159C26.2026 23.4425 27.7978 23.4397 27.7978 22.8159C27.7978 22.0895 27.7978 20.708 27.7978 20.708L28.2649 20.332L30.3129 23.1235C30.7259 23.6704 32.0277 22.682 31.6146 22.1379L29.4413 19.2753C29.4413 19.2753 30.9168 17.6802 31.4979 17.1019C31.8368 16.7658 30.7858 15.7062 30.4468 16.0452C30.1192 16.3699 27.8063 18.6857 27.8063 18.6857C27.8063 18.6857 27.8262 17.233 27.8063 16.4297C27.7978 16.1249 27.4246 15.9768 27.0401 15.9768C26.6299 15.9768 26.2112 16.1449 26.2197 16.4724" fill="#FAE100"/>
<mask id="mask3_164_121" style="mask-type:luminance" maskUnits="userSpaceOnUse" x="26" y="15" width="6" height="9">
<path d="M26.2226 16.4724C26.2397 17.0649 26.2026 22.4199 26.2026 22.8159C26.2026 23.4425 27.7978 23.4397 27.7978 22.8159C27.7978 22.0895 27.7978 20.708 27.7978 20.708L28.2649 20.332L30.3129 23.1235C30.7259 23.6704 32.0277 22.682 31.6146 22.1379L29.4413 19.2753C29.4413 19.2753 30.9168 17.6802 31.4979 17.1019C31.8368 16.7658 30.7858 15.7062 30.4468 16.0452C30.1192 16.3699 27.8063 18.6857 27.8063 18.6857C27.8063 18.6857 27.8262 17.233 27.8063 16.4297C27.7978 16.1249 27.4246 15.9768 27.0401 15.9768C26.6299 15.9768 26.2112 16.1449 26.2197 16.4724" fill="white"/>
</mask>
<g mask="url(#mask3_164_121)">
<path d="M32.0277 15.709H26.2026V23.6732H32.0277V15.709Z" fill="#FAE100"/>
</g>
</g>
<defs>
<clipPath id="clip0_164_121">
<rect width="42" height="42" fill="white"/>
</clipPath>
</defs>
</svg>
