<svg width="22" height="24" viewBox="0 0 22 24" fill="none" xmlns="http://www.w3.org/2000/svg">
<g id="lock">
<path id="Vector" d="M17.4857 9.6H17.1429V6.51429C17.1429 4.78659 16.4565 3.12966 15.2349 1.90799C14.0132 0.686325 12.3563 0 10.6286 0C8.90088 0 7.24394 0.686325 6.02228 1.90799C4.80061 3.12966 4.11429 4.78659 4.11429 6.51429V9.6H3.77143C2.77118 9.6 1.81191 9.99735 1.10463 10.7046C0.397346 11.4119 0 12.3712 0 13.3714V20.2286C0 21.2288 0.397346 22.1881 1.10463 22.8954C1.81191 23.6027 2.77118 24 3.77143 24H17.4857C18.486 24 19.4452 23.6027 20.1525 22.8954C20.8598 22.1881 21.2571 21.2288 21.2571 20.2286V13.3714C21.2571 12.3712 20.8598 11.4119 20.1525 10.7046C19.4452 9.99735 18.486 9.6 17.4857 9.6ZM6.17143 6.51429C6.17143 5.33218 6.64102 4.19849 7.4769 3.36261C8.31277 2.52673 9.44646 2.05714 10.6286 2.05714C11.8107 2.05714 12.9444 2.52673 13.7802 3.36261C14.6161 4.19849 15.0857 5.33218 15.0857 6.51429V9.6H6.17143V6.51429ZM19.2 20.2286C19.2 20.6832 19.0194 21.1193 18.6979 21.4408C18.3764 21.7622 17.9404 21.9429 17.4857 21.9429H3.77143C3.31677 21.9429 2.88074 21.7622 2.55925 21.4408C2.23775 21.1193 2.05714 20.6832 2.05714 20.2286V13.3714C2.05714 12.9168 2.23775 12.4807 2.55925 12.1592C2.88074 11.8378 3.31677 11.6571 3.77143 11.6571H17.4857C17.9404 11.6571 18.3764 11.8378 18.6979 12.1592C19.0194 12.4807 19.2 12.9168 19.2 13.3714V20.2286Z" fill="#737373"/>
</g>
</svg>
