<svg width="23" height="24" viewBox="0 0 23 24" fill="none" xmlns="http://www.w3.org/2000/svg">
<g clip-path="url(#clip0_315_2142)">
<path d="M11.6849 0H11.6834C5.48269 0 0.456055 5.37222 0.456055 11.9992V12.0008C0.456055 18.6278 5.48269 24 11.6834 24H11.6849C17.8856 24 22.9122 18.6278 22.9122 12.0008V11.9992C22.9122 5.37222 17.8856 0 11.6849 0Z" fill="#FAE100"/>
<path d="M11.6621 4.40125C7.20739 4.40125 3.59644 7.4515 3.59644 11.2163C3.59644 13.6659 5.12549 15.8128 7.42213 17.0141C7.25308 17.6863 6.81142 19.4523 6.72309 19.8299C6.61343 20.2987 6.883 20.2922 7.06118 20.1669C7.19977 20.0676 9.27101 18.562 10.165 17.9125C10.6508 17.989 11.1503 18.0297 11.6621 18.0297C16.1167 18.0297 19.7277 14.9795 19.7277 11.2163C19.7277 7.45313 16.1167 4.40125 11.6621 4.40125Z" fill="#371D1E"/>
</g>
<defs>
<clipPath id="clip0_315_2142">
<rect width="22.4561" height="24" fill="white" transform="translate(0.456055)"/>
</clipPath>
</defs>
</svg>
