<svg width="14" height="24" viewBox="0 0 14 24" fill="none" xmlns="http://www.w3.org/2000/svg">
<path d="M12.4336 1.73031e-05C12.6396 -0.000955463 12.8437 0.0392228 13.0339 0.118193C13.2242 0.197163 13.3968 0.313335 13.5415 0.459894C13.8351 0.753851 14 1.15232 14 1.56778C14 1.98324 13.8351 2.38172 13.5415 2.67567L4.19761 12.0196L13.5415 21.3635C13.8184 21.6606 13.9692 22.0537 13.962 22.4599C13.9549 22.866 13.7903 23.2536 13.5031 23.5408C13.2158 23.8281 12.8283 23.9926 12.4222 23.9998C12.016 24.0069 11.6229 23.8562 11.3257 23.5792L0.873947 13.1275C0.580356 12.8335 0.415448 12.435 0.415448 12.0196C0.415448 11.6041 0.580355 11.2056 0.873947 10.9117L11.3257 0.459894C11.4705 0.313336 11.643 0.197163 11.8333 0.118193C12.0235 0.0392229 12.2276 -0.000955427 12.4336 1.73031e-05Z" fill="black"/>
</svg>
