<svg width="36" height="36" viewBox="0 0 36 36" fill="none" xmlns="http://www.w3.org/2000/svg">
<g id="PrimeNG Icons v5.0.0/heart">
<g id="heart">
<path id="Vector" d="M18 29.625C17.7017 29.6247 17.4158 29.506 17.205 29.295L7.05 19.11C5.67579 17.708 4.90607 15.8231 4.90607 13.86C4.90607 11.8969 5.67579 10.012 7.05 8.61C8.44243 7.2177 10.3309 6.43553 12.3 6.43553C14.2691 6.43553 16.1576 7.2177 17.55 8.61L18 9L18.42 8.58C19.1085 7.88399 19.9285 7.33193 20.8324 6.95594C21.7363 6.57996 22.706 6.38758 23.685 6.39C24.6629 6.38562 25.632 6.57564 26.5358 6.94902C27.4397 7.32241 28.2603 7.87171 28.95 8.565C30.3242 9.96696 31.0939 11.8519 31.0939 13.815C31.0939 15.7781 30.3242 17.663 28.95 19.065L18.795 29.25C18.6944 29.3627 18.5722 29.4539 18.4356 29.5184C18.2991 29.5828 18.1509 29.619 18 29.625ZM12.315 8.625C11.6337 8.62004 10.9582 8.75003 10.3275 9.00749C9.69674 9.26494 9.12321 9.64475 8.64 10.125C7.6663 11.1032 7.11967 12.4273 7.11967 13.8075C7.11967 15.1877 7.6663 16.5118 8.64 17.49L18 26.91L27.345 17.52C27.8289 17.0366 28.2128 16.4625 28.4748 15.8307C28.7367 15.1988 28.8715 14.5215 28.8715 13.8375C28.8715 13.1535 28.7367 12.4762 28.4748 11.8443C28.2128 11.2124 27.8289 10.6384 27.345 10.155C26.8656 9.67384 26.2948 9.2933 25.6663 9.03572C25.0378 8.77814 24.3642 8.6487 23.685 8.655C23.0037 8.65004 22.3282 8.78003 21.6975 9.03749C21.0667 9.29494 20.4932 9.67475 20.01 10.155L18.795 11.37C18.5804 11.5736 18.2958 11.6871 18 11.6871C17.7042 11.6871 17.4196 11.5736 17.205 11.37L15.99 10.155C15.5093 9.66933 14.9368 9.28399 14.306 9.02134C13.6751 8.75869 12.9984 8.62397 12.315 8.625Z" fill="black"/>
</g>
</g>
</svg>
