<svg width="36" height="36" viewBox="0 0 36 36" fill="none" xmlns="http://www.w3.org/2000/svg">
<g id="PrimeNG Icons v5.0.0/align-justify">
<g id="align-justify">
<path id="Vector" d="M30 16.125H6C5.70163 16.125 5.41548 16.0065 5.2045 15.7955C4.99353 15.5845 4.875 15.2984 4.875 15C4.875 14.7016 4.99353 14.4155 5.2045 14.2045C5.41548 13.9935 5.70163 13.875 6 13.875H30C30.2984 13.875 30.5845 13.9935 30.7955 14.2045C31.0065 14.4155 31.125 14.7016 31.125 15C31.125 15.2984 31.0065 15.5845 30.7955 15.7955C30.5845 16.0065 30.2984 16.125 30 16.125Z" fill="black"/>
<path id="Vector_2" d="M30 10.125H6C5.70163 10.125 5.41548 10.0065 5.2045 9.7955C4.99353 9.58452 4.875 9.29837 4.875 9C4.875 8.70163 4.99353 8.41548 5.2045 8.2045C5.41548 7.99353 5.70163 7.875 6 7.875H30C30.2984 7.875 30.5845 7.99353 30.7955 8.2045C31.0065 8.41548 31.125 8.70163 31.125 9C31.125 9.29837 31.0065 9.58452 30.7955 9.7955C30.5845 10.0065 30.2984 10.125 30 10.125Z" fill="black"/>
<path id="Vector_3" d="M30 22.125H6C5.70163 22.125 5.41548 22.0065 5.2045 21.7955C4.99353 21.5845 4.875 21.2984 4.875 21C4.875 20.7016 4.99353 20.4155 5.2045 20.2045C5.41548 19.9935 5.70163 19.875 6 19.875H30C30.2984 19.875 30.5845 19.9935 30.7955 20.2045C31.0065 20.4155 31.125 20.7016 31.125 21C31.125 21.2984 31.0065 21.5845 30.7955 21.7955C30.5845 22.0065 30.2984 22.125 30 22.125Z" fill="black"/>
<path id="Vector_4" d="M30 28.125H6C5.70163 28.125 5.41548 28.0065 5.2045 27.7955C4.99353 27.5845 4.875 27.2984 4.875 27C4.875 26.7016 4.99353 26.4155 5.2045 26.2045C5.41548 25.9935 5.70163 25.875 6 25.875H30C30.2984 25.875 30.5845 25.9935 30.7955 26.2045C31.0065 26.4155 31.125 26.7016 31.125 27C31.125 27.2984 31.0065 27.5845 30.7955 27.7955C30.5845 28.0065 30.2984 28.125 30 28.125Z" fill="black"/>
</g>
</g>
</svg>
