<svg width="36" height="36" viewBox="0 0 36 36" fill="none" xmlns="http://www.w3.org/2000/svg">
<g id="PrimeNG Icons v5.0.0/user">
<g id="user">
<path id="Vector" d="M18 18.375C16.8875 18.375 15.7999 18.0451 14.8749 17.427C13.9499 16.8089 13.2289 15.9304 12.8032 14.9026C12.3774 13.8748 12.266 12.7438 12.4831 11.6526C12.7001 10.5615 13.2359 9.5592 14.0225 8.77253C14.8092 7.98586 15.8115 7.45013 16.9026 7.23309C17.9938 7.01604 19.1248 7.12744 20.1526 7.55318C21.1804 7.97892 22.0589 8.69989 22.677 9.62492C23.2951 10.5499 23.625 11.6375 23.625 12.75C23.625 14.2418 23.0324 15.6726 21.9775 16.7275C20.9226 17.7824 19.4918 18.375 18 18.375ZM18 9.375C17.3325 9.375 16.68 9.57294 16.125 9.94379C15.5699 10.3146 15.1374 10.8417 14.8819 11.4584C14.6265 12.0751 14.5596 12.7537 14.6899 13.4084C14.8201 14.0631 15.1415 14.6645 15.6135 15.1365C16.0855 15.6085 16.6869 15.9299 17.3416 16.0602C17.9963 16.1904 18.6749 16.1235 19.2916 15.8681C19.9083 15.6126 20.4354 15.1801 20.8062 14.6251C21.1771 14.07 21.375 13.4175 21.375 12.75C21.375 11.8549 21.0194 10.9965 20.3865 10.3635C19.7536 9.73058 18.8951 9.375 18 9.375Z" fill="black"/>
<path id="Vector_2" d="M28.5 28.875C28.2028 28.8711 27.9189 28.7513 27.7088 28.5412C27.4987 28.3311 27.3789 28.0472 27.375 27.75C27.375 24.825 25.785 22.875 18 22.875C10.215 22.875 8.625 24.825 8.625 27.75C8.625 28.0484 8.50647 28.3345 8.2955 28.5455C8.08452 28.7565 7.79837 28.875 7.5 28.875C7.20163 28.875 6.91548 28.7565 6.7045 28.5455C6.49353 28.3345 6.375 28.0484 6.375 27.75C6.375 20.625 14.52 20.625 18 20.625C21.48 20.625 29.625 20.625 29.625 27.75C29.6211 28.0472 29.5013 28.3311 29.2912 28.5412C29.0811 28.7513 28.7972 28.8711 28.5 28.875Z" fill="black"/>
</g>
</g>
</svg>
