<svg width="25" height="26" viewBox="0 0 25 26" fill="none" xmlns="http://www.w3.org/2000/svg">
<path fill-rule="evenodd" clip-rule="evenodd" d="M17.726 0.200287C15.9295 0.183731 14.1988 0.916163 12.9066 2.23983L10.9272 4.32676C10.4841 4.79402 10.482 5.55381 10.9225 6.02381C11.3631 6.4938 12.0795 6.49601 12.5227 6.02875L14.4842 3.96044C15.3491 3.07754 16.5058 2.58913 17.7063 2.6002C18.9094 2.61128 20.0603 3.1231 20.9111 4.02541C21.7619 4.92771 22.2444 6.14832 22.2549 7.42432C22.2653 8.69705 21.8052 9.92331 20.9734 10.8404L17.5486 14.4727C17.0834 14.9663 16.5236 15.3479 15.9071 15.5918C15.2906 15.8357 14.6319 15.9362 13.9756 15.8863C13.3193 15.8365 12.6807 15.6375 12.1033 15.3029C11.5259 14.9683 11.0231 14.506 10.6289 13.9471C10.2546 13.4164 9.54557 13.308 9.04518 13.705C8.5448 14.102 8.44258 14.854 8.81687 15.3847C9.40535 16.2191 10.1562 16.9095 11.0183 17.4091C11.8805 17.9087 12.8339 18.2058 13.8139 18.2802C14.7939 18.3546 15.7775 18.2047 16.698 17.8405C17.6184 17.4763 18.4544 16.9063 19.149 16.1695L22.581 12.5298L22.5947 12.5148C23.8427 11.1443 24.5333 9.30875 24.5177 7.40347C24.5021 5.49819 23.7815 3.67564 22.5112 2.32835C21.2409 0.981063 19.5224 0.216843 17.726 0.200287ZM11.1865 7.71985C10.2065 7.64541 9.22293 7.79537 8.30242 8.15955C7.38197 8.52371 6.54597 9.09369 5.85141 9.83055L2.41939 13.4702L2.40573 13.4852C1.15767 14.8557 0.46707 16.6913 0.482681 18.5966C0.498292 20.5018 1.21886 22.3244 2.48919 23.6717C3.75952 25.019 5.47797 25.7832 7.27442 25.7997C9.07087 25.8163 10.8017 25.084 12.0939 23.7603L14.0641 21.6708C14.506 21.2022 14.506 20.4424 14.0641 19.9738C13.6222 19.5051 12.9058 19.5051 12.464 19.9738L10.5151 22.0407C9.65035 22.9229 8.49412 23.4109 7.29408 23.3998C6.09096 23.3888 4.94008 22.8769 4.08931 21.9746C3.23854 21.0723 2.75596 19.8517 2.74551 18.5757C2.73508 17.303 3.19518 16.0767 4.02697 15.1596L7.45182 11.5273C7.91701 11.0338 8.47683 10.6521 9.09332 10.4082C9.70981 10.1643 10.3685 10.0639 11.0248 10.1137C11.6812 10.1636 12.3197 10.3625 12.8971 10.6971C13.4745 11.0317 13.9773 11.4941 14.3715 12.0529C14.7458 12.5836 15.4548 12.692 15.9552 12.295C16.4556 11.8981 16.5578 11.146 16.1835 10.6153C15.595 9.78095 14.8442 9.09055 13.9821 8.59096C13.1199 8.09137 12.1665 7.79428 11.1865 7.71985Z" fill="white"/>
</svg>
