<svg width="23" height="26" viewBox="0 0 23 26" fill="none" xmlns="http://www.w3.org/2000/svg">
<path id="update" fill-rule="evenodd" clip-rule="evenodd" d="M12.5979 0.551484C12.1321 0.082855 11.3767 0.0828549 10.9108 0.551484C10.4449 1.02011 10.4449 1.77991 10.9108 2.24854L13.0399 4.3902C12.8814 4.39088 12.7256 4.39251 12.5816 4.39446C12.2824 4.39851 12.0034 4.40458 11.7994 4.40961C11.6973 4.41214 11.6137 4.41441 11.5554 4.41606L11.4878 4.41802L11.4815 4.41821C5.62009 4.42824 0.871582 9.21087 0.871582 15.1091C0.871582 21.0135 5.63007 25.8 11.5 25.8C17.3699 25.8 22.1284 21.0135 22.1284 15.1091C22.1284 14.4464 21.5942 13.9091 20.9354 13.9091C20.2765 13.9091 19.7424 14.4464 19.7424 15.1091C19.7424 19.688 16.0521 23.4 11.5 23.4C6.94781 23.4 3.25755 19.688 3.25755 15.1091C3.25755 10.5302 6.94781 6.81819 11.5 6.81819C11.5123 6.81819 11.5246 6.818 11.5368 6.81762L11.5369 6.81762L11.537 6.81761L11.538 6.81758L11.542 6.81746L11.5584 6.81697L11.6225 6.81511C11.6783 6.81353 11.759 6.81134 11.858 6.80889C12.0561 6.804 12.3259 6.79814 12.6137 6.79425C12.9754 6.78935 13.3281 6.78835 13.6015 6.79312L10.9108 9.4996C10.4449 9.96823 10.4449 10.728 10.9108 11.1967C11.3767 11.6653 12.1321 11.6653 12.5979 11.1967L17.0458 6.7226C17.5117 6.25397 17.5117 5.49417 17.0458 5.02554L12.5979 0.551484Z" fill="white"/>
</svg>
