<svg width="320" height="46" viewBox="0 0 320 46" fill="none" xmlns="http://www.w3.org/2000/svg">
<rect x="0.5" y="0.5" width="319" height="45" rx="11.5" fill="white" stroke="black"/>
<path d="M99.3674 20.2734C99.0549 19.3424 98.5569 18.6165 97.8733 18.0957C97.1897 17.5684 96.3531 17.3047 95.3635 17.3047C94.5172 17.3047 93.7555 17.5228 93.0784 17.959C92.4013 18.3952 91.8642 19.0365 91.467 19.8828C91.0699 20.7292 90.8713 21.7448 90.8713 22.9297C90.8713 24.1146 91.0699 25.1302 91.467 25.9766C91.8707 26.8164 92.4176 27.4544 93.1077 27.8906C93.8043 28.3268 94.5953 28.5482 95.4807 28.5547C96.2685 28.5547 96.9683 28.3854 97.5803 28.0469C98.1923 27.7083 98.6708 27.2331 99.0159 26.6211C99.3609 26.0026 99.5367 25.2799 99.5432 24.4531H95.8518V22.9102H101.262V24.4336C101.262 25.5859 101.015 26.5983 100.52 27.4707C100.031 28.3366 99.3479 29.0072 98.469 29.4824C97.5966 29.9577 96.6005 30.1953 95.4807 30.1953C94.2242 30.1953 93.1174 29.9023 92.1604 29.3164C91.2099 28.724 90.4742 27.8809 89.9534 26.7871C89.4325 25.6868 89.1721 24.401 89.1721 22.9297C89.1721 21.4648 89.4325 20.1855 89.9534 19.0918C90.4742 17.9915 91.2034 17.1452 92.1409 16.5527C93.0784 15.9603 94.1526 15.6641 95.3635 15.6641C96.3466 15.6641 97.2483 15.8594 98.0686 16.25C98.8889 16.6341 99.5693 17.1745 100.11 17.8711C100.65 18.5677 101.008 19.3685 101.184 20.2734H99.3674ZM115.852 22.9297C115.852 24.3945 115.585 25.6771 115.051 26.7773C114.517 27.8711 113.775 28.7142 112.824 29.3066C111.88 29.8991 110.806 30.1953 109.602 30.1953C108.391 30.1953 107.31 29.8991 106.36 29.3066C105.416 28.7142 104.677 27.8711 104.143 26.7773C103.615 25.6771 103.352 24.3945 103.352 22.9297C103.352 21.4648 103.615 20.1855 104.143 19.0918C104.677 17.9915 105.416 17.1452 106.36 16.5527C107.31 15.9603 108.391 15.6641 109.602 15.6641C110.806 15.6641 111.88 15.9603 112.824 16.5527C113.775 17.1452 114.517 17.9915 115.051 19.0918C115.585 20.1855 115.852 21.4648 115.852 22.9297ZM105.051 22.9297C105.051 24.1081 105.25 25.1204 105.647 25.9668C106.044 26.8132 106.584 27.4544 107.268 27.8906C107.958 28.3268 108.736 28.5482 109.602 28.5547C110.468 28.5482 111.242 28.3268 111.926 27.8906C112.616 27.4544 113.16 26.8132 113.557 25.9668C113.954 25.1204 114.153 24.1081 114.153 22.9297C114.153 21.7448 113.954 20.7292 113.557 19.8828C113.16 19.0365 112.616 18.3952 111.926 17.959C111.242 17.5228 110.468 17.3047 109.602 17.3047C108.736 17.3047 107.958 17.5228 107.268 17.959C106.584 18.3952 106.044 19.0365 105.647 19.8828C105.25 20.7292 105.051 21.7448 105.051 22.9297ZM130.383 22.9297C130.383 24.3945 130.116 25.6771 129.582 26.7773C129.048 27.8711 128.306 28.7142 127.356 29.3066C126.412 29.8991 125.337 30.1953 124.133 30.1953C122.922 30.1953 121.841 29.8991 120.891 29.3066C119.947 28.7142 119.208 27.8711 118.674 26.7773C118.147 25.6771 117.883 24.3945 117.883 22.9297C117.883 21.4648 118.147 20.1855 118.674 19.0918C119.208 17.9915 119.947 17.1452 120.891 16.5527C121.841 15.9603 122.922 15.6641 124.133 15.6641C125.337 15.6641 126.412 15.9603 127.356 16.5527C128.306 17.1452 129.048 17.9915 129.582 19.0918C130.116 20.1855 130.383 21.4648 130.383 22.9297ZM119.582 22.9297C119.582 24.1081 119.781 25.1204 120.178 25.9668C120.575 26.8132 121.115 27.4544 121.799 27.8906C122.489 28.3268 123.267 28.5482 124.133 28.5547C124.999 28.5482 125.774 28.3268 126.457 27.8906C127.147 27.4544 127.691 26.8132 128.088 25.9668C128.485 25.1204 128.684 24.1081 128.684 22.9297C128.684 21.7448 128.485 20.7292 128.088 19.8828C127.691 19.0365 127.147 18.3952 126.457 17.959C125.774 17.5228 124.999 17.3047 124.133 17.3047C123.267 17.3047 122.489 17.5228 121.799 17.959C121.115 18.3952 120.575 19.0365 120.178 19.8828C119.781 20.7292 119.582 21.7448 119.582 22.9297ZM142.61 20.2734C142.297 19.3424 141.799 18.6165 141.115 18.0957C140.432 17.5684 139.595 17.3047 138.606 17.3047C137.759 17.3047 136.998 17.5228 136.321 17.959C135.643 18.3952 135.106 19.0365 134.709 19.8828C134.312 20.7292 134.114 21.7448 134.114 22.9297C134.114 24.1146 134.312 25.1302 134.709 25.9766C135.113 26.8164 135.66 27.4544 136.35 27.8906C137.046 28.3268 137.837 28.5482 138.723 28.5547C139.511 28.5547 140.211 28.3854 140.823 28.0469C141.434 27.7083 141.913 27.2331 142.258 26.6211C142.603 26.0026 142.779 25.2799 142.785 24.4531H139.094V22.9102H144.504V24.4336C144.504 25.5859 144.257 26.5983 143.762 27.4707C143.274 28.3366 142.59 29.0072 141.711 29.4824C140.839 29.9577 139.843 30.1953 138.723 30.1953C137.466 30.1953 136.36 29.9023 135.403 29.3164C134.452 28.724 133.716 27.8809 133.196 26.7871C132.675 25.6868 132.414 24.401 132.414 22.9297C132.414 21.4648 132.675 20.1855 133.196 19.0918C133.716 17.9915 134.446 17.1452 135.383 16.5527C136.321 15.9603 137.395 15.6641 138.606 15.6641C139.589 15.6641 140.49 15.8594 141.311 16.25C142.131 16.6341 142.811 17.1745 143.352 17.8711C143.892 18.5677 144.25 19.3685 144.426 20.2734H142.61ZM147.141 15.8594H148.899V28.4375H155.461V30H147.141V15.8594ZM157.805 15.8594H166.379V17.4219H159.563V22.1484H165.93V23.6914H159.563V28.4375H166.477V30H157.805V15.8594ZM184.192 29.4336H168.293V28.1445H175.442V24.8633H170.285V19.5117H180.676V16.7773H170.246V15.5078H182.18V20.7617H171.809V23.5938H182.59V24.8633H176.946V28.1445H184.192V29.4336ZM206.496 29.4336H190.598V28.1445H197.746V24.8633H192.59V19.5117H202.981V16.7773H192.551V15.5078H204.485V20.7617H194.114V23.5938H204.895V24.8633H199.25V28.1445H206.496V29.4336ZM221.574 17.8125C221.574 18.8086 221.561 19.6777 221.535 20.4199C221.516 21.1621 221.461 22.028 221.369 23.0176C221.278 24.0007 221.132 25.0781 220.93 26.25L219.367 26.0938C219.582 24.9935 219.742 23.9583 219.846 22.9883C219.95 22.0117 220.012 21.1523 220.031 20.4102C220.058 19.6615 220.071 18.7956 220.071 17.8125V17.3438H209.602V16.0742H221.574V17.8125ZM207.883 27.7539H223.703V29.0234H207.883V27.7539ZM239.504 26.9336H237.981V14.2383H239.504V26.9336ZM225.578 19.707C225.578 18.8867 225.774 18.1543 226.164 17.5098C226.561 16.8652 227.105 16.3607 227.795 15.9961C228.492 15.6315 229.27 15.4492 230.129 15.4492C230.989 15.4492 231.763 15.6315 232.453 15.9961C233.143 16.3607 233.687 16.8652 234.084 17.5098C234.481 18.1543 234.68 18.8867 234.68 19.707C234.68 20.5339 234.481 21.2728 234.084 21.9238C233.687 22.5749 233.143 23.0827 232.453 23.4473C231.763 23.8053 230.989 23.9844 230.129 23.9844C229.27 23.9844 228.492 23.8053 227.795 23.4473C227.105 23.0827 226.561 22.5749 226.164 21.9238C225.774 21.2728 225.578 20.5339 225.578 19.707ZM227.082 19.707C227.076 20.2734 227.203 20.7812 227.463 21.2305C227.73 21.6732 228.095 22.0182 228.557 22.2656C229.026 22.513 229.55 22.6367 230.129 22.6367C230.702 22.6367 231.22 22.513 231.682 22.2656C232.144 22.0182 232.509 21.6732 232.776 21.2305C233.043 20.7812 233.176 20.2734 233.176 19.707C233.176 19.1471 233.043 18.6491 232.776 18.2129C232.509 17.7702 232.144 17.4251 231.682 17.1777C231.22 16.9238 230.702 16.7969 230.129 16.7969C229.55 16.7969 229.026 16.9206 228.557 17.168C228.095 17.4154 227.73 17.7604 227.463 18.2031C227.203 18.6458 227.076 19.1471 227.082 19.707ZM228.293 25.6445H229.817V29.9219H240.051V31.2109H228.293V25.6445Z" fill="black"/>
<path d="M44.4122 23C44.4122 29.3831 39.5783 34.5 33.6841 34.5C27.79 34.5 22.9561 29.3831 22.9561 23C22.9561 16.6169 27.79 11.5 33.6841 11.5C39.5783 11.5 44.4122 16.6169 44.4122 23Z" fill="white" stroke="#DFDFDF"/>
<g clip-path="url(#clip0_238_636)">
<path d="M42.072 23.2106C42.072 22.5891 42.0249 21.9642 41.9243 21.3528H33.8552V24.8735H38.476C38.2843 26.009 37.6682 27.0135 36.766 27.6518V29.9363H39.5228C41.1416 28.3439 42.072 25.9922 42.072 23.2106Z" fill="#4285F4"/>
<path d="M33.8552 32.1436C36.1624 32.1436 38.1082 31.3339 39.5258 29.9364L36.7691 27.6519C36.0021 28.2096 35.0119 28.5254 33.8583 28.5254C31.6265 28.5254 29.7342 26.9162 29.0552 24.7527H26.2104V27.1077C27.6627 30.1951 30.6206 32.1436 33.8552 32.1436Z" fill="#34A853"/>
<path d="M29.0522 24.7526C28.6938 23.6171 28.6938 22.3875 29.0522 21.252V18.897H26.2105C24.9972 21.4804 24.9972 24.5241 26.2105 27.1076L29.0522 24.7526Z" fill="#FBBC04"/>
<path d="M33.8552 17.476C35.0748 17.4558 36.2536 17.9463 37.1369 18.8466L39.5793 16.2363C38.0327 14.6842 35.9801 13.8309 33.8552 13.8578C30.6206 13.8578 27.6627 15.8063 26.2104 18.897L29.0521 21.252C29.7279 19.0852 31.6234 17.476 33.8552 17.476Z" fill="#EA4335"/>
</g>
<defs>
<clipPath id="clip0_238_636">
<rect width="17.1094" height="18.2857" fill="white" transform="translate(25.1294 13.8572)"/>
</clipPath>
</defs>
</svg>
