<svg width="320" height="46" viewBox="0 0 320 46" fill="none" xmlns="http://www.w3.org/2000/svg">
<rect width="320" height="46" rx="12" fill="#F8E412"/>
<path d="M93.1555 15.8594H94.9133V22.8516H95.0891L101.378 15.8594H103.683L97.7649 22.2461L103.683 30H101.534L96.6711 23.457L94.9133 25.4492V30H93.1555V15.8594ZM104.366 30L109.542 15.8594H111.398L116.573 30H114.718L113.302 26.0156H107.618L106.202 30H104.366ZM112.765 24.4727L110.519 18.1445H110.402L108.156 24.4727H112.765ZM118.488 15.8594H120.245V22.8516H120.421L126.71 15.8594H129.015L123.097 22.2461L129.015 30H126.866L122.003 23.457L120.245 25.4492V30H118.488V15.8594ZM129.698 30L134.874 15.8594H136.73L141.906 30H140.05L138.634 26.0156H132.95L131.534 30H129.698ZM138.097 24.4727L135.851 18.1445H135.734L133.488 24.4727H138.097ZM155.109 22.9297C155.109 24.3945 154.842 25.6771 154.308 26.7773C153.774 27.8711 153.032 28.7142 152.081 29.3066C151.137 29.8991 150.063 30.1953 148.859 30.1953C147.648 30.1953 146.567 29.8991 145.616 29.3066C144.672 28.7142 143.934 27.8711 143.4 26.7773C142.872 25.6771 142.609 24.3945 142.609 22.9297C142.609 21.4648 142.872 20.1855 143.4 19.0918C143.934 17.9915 144.672 17.1452 145.616 16.5527C146.567 15.9603 147.648 15.6641 148.859 15.6641C150.063 15.6641 151.137 15.9603 152.081 16.5527C153.032 17.1452 153.774 17.9915 154.308 19.0918C154.842 20.1855 155.109 21.4648 155.109 22.9297ZM144.308 22.9297C144.308 24.1081 144.506 25.1204 144.904 25.9668C145.301 26.8132 145.841 27.4544 146.525 27.8906C147.215 28.3268 147.993 28.5482 148.859 28.5547C149.725 28.5482 150.499 28.3268 151.183 27.8906C151.873 27.4544 152.417 26.8132 152.814 25.9668C153.211 25.1204 153.409 24.1081 153.409 22.9297C153.409 21.7448 153.211 20.7292 152.814 19.8828C152.417 19.0365 151.873 18.3952 151.183 17.959C150.499 17.5228 149.725 17.3047 148.859 17.3047C147.993 17.3047 147.215 17.5228 146.525 17.959C145.841 18.3952 145.301 19.0365 144.904 19.8828C144.506 20.7292 144.308 21.7448 144.308 22.9297ZM172.726 29.4336H156.827V28.1445H163.976V24.8633H158.82V19.5117H169.21V16.7773H158.781V15.5078H170.714V20.7617H160.343V23.5938H171.124V24.8633H165.48V28.1445H172.726V29.4336ZM195.031 29.4336H179.132V28.1445H186.281V24.8633H181.124V19.5117H191.515V16.7773H181.085V15.5078H193.019V20.7617H182.648V23.5938H193.429V24.8633H187.784V28.1445H195.031V29.4336ZM210.109 17.8125C210.109 18.8086 210.096 19.6777 210.07 20.4199C210.05 21.1621 209.995 22.028 209.904 23.0176C209.812 24.0007 209.666 25.0781 209.464 26.25L207.902 26.0938C208.116 24.9935 208.276 23.9583 208.38 22.9883C208.484 22.0117 208.546 21.1523 208.566 20.4102C208.592 19.6615 208.605 18.7956 208.605 17.8125V17.3438H198.136V16.0742H210.109V17.8125ZM196.417 27.7539H212.238V29.0234H196.417V27.7539ZM228.038 26.9336H226.515V14.2383H228.038V26.9336ZM214.113 19.707C214.113 18.8867 214.308 18.1543 214.698 17.5098C215.096 16.8652 215.639 16.3607 216.329 15.9961C217.026 15.6315 217.804 15.4492 218.663 15.4492C219.523 15.4492 220.297 15.6315 220.988 15.9961C221.678 16.3607 222.221 16.8652 222.618 17.5098C223.016 18.1543 223.214 18.8867 223.214 19.707C223.214 20.5339 223.016 21.2728 222.618 21.9238C222.221 22.5749 221.678 23.0827 220.988 23.4473C220.297 23.8053 219.523 23.9844 218.663 23.9844C217.804 23.9844 217.026 23.8053 216.329 23.4473C215.639 23.0827 215.096 22.5749 214.698 21.9238C214.308 21.2728 214.113 20.5339 214.113 19.707ZM215.616 19.707C215.61 20.2734 215.737 20.7812 215.997 21.2305C216.264 21.6732 216.629 22.0182 217.091 22.2656C217.56 22.513 218.084 22.6367 218.663 22.6367C219.236 22.6367 219.754 22.513 220.216 22.2656C220.678 22.0182 221.043 21.6732 221.31 21.2305C221.577 20.7812 221.71 20.2734 221.71 19.707C221.71 19.1471 221.577 18.6491 221.31 18.2129C221.043 17.7702 220.678 17.4251 220.216 17.1777C219.754 16.9238 219.236 16.7969 218.663 16.7969C218.084 16.7969 217.56 16.9206 217.091 17.168C216.629 17.4154 216.264 17.7604 215.997 18.2031C215.737 18.6458 215.61 19.1471 215.616 19.707ZM216.827 25.6445H218.351V29.9219H228.585V31.2109H216.827V25.6445Z" fill="black"/>
<g clip-path="url(#clip0_238_632)">
<path d="M33.6849 11H33.6834C27.4827 11 22.4561 16.3722 22.4561 22.9992V23.0008C22.4561 29.6278 27.4827 35 33.6834 35H33.6849C39.8856 35 44.9122 29.6278 44.9122 23.0008V22.9992C44.9122 16.3722 39.8856 11 33.6849 11Z" fill="#FAE100"/>
<path d="M33.6621 15.4011C29.2074 15.4011 25.5964 18.4514 25.5964 22.2162C25.5964 24.6658 27.1255 26.8127 29.4221 28.0139C29.2531 28.6862 28.8114 30.4522 28.7231 30.8298C28.6134 31.2986 28.883 31.2921 29.0612 31.1667C29.1998 31.0675 31.271 29.5619 32.165 28.9124C32.6508 28.9889 33.1503 29.0296 33.6621 29.0296C38.1167 29.0296 41.7277 25.9794 41.7277 22.2162C41.7277 18.453 38.1167 15.4011 33.6621 15.4011Z" fill="#371D1E"/>
</g>
<defs>
<clipPath id="clip0_238_632">
<rect width="22.4561" height="24" fill="white" transform="translate(22.4561 11)"/>
</clipPath>
</defs>
</svg>
