<svg width="36" height="36" viewBox="0 0 36 36" fill="none" xmlns="http://www.w3.org/2000/svg">
<g id="User_empty">
<path id="user" fill-rule="evenodd" clip-rule="evenodd" d="M21.9038 11.6C21.9038 13.4299 20.4002 14.95 18.5 14.95C16.5998 14.95 15.0962 13.4299 15.0962 11.6C15.0962 9.7701 16.5998 8.25 18.5 8.25C20.4002 8.25 21.9038 9.7701 21.9038 11.6ZM24.1538 11.6C24.1538 14.6928 21.6225 17.2 18.5 17.2C15.3775 17.2 12.8462 14.6928 12.8462 11.6C12.8462 8.5072 15.3775 6 18.5 6C21.6225 6 24.1538 8.5072 24.1538 11.6ZM16.1951 21.05H20.8049C24.0034 21.05 26.75 23.7765 26.75 27.3333C26.75 27.4783 26.6954 27.5893 26.6271 27.6604C26.5603 27.73 26.495 27.75 26.439 27.75H10.561C10.505 27.75 10.4397 27.73 10.3729 27.6604C10.3046 27.5893 10.25 27.4783 10.25 27.3333C10.25 23.7765 12.9966 21.05 16.1951 21.05ZM8 27.3333C8 22.6205 11.6691 18.8 16.1951 18.8H20.8049C25.3309 18.8 29 22.6205 29 27.3333C29 28.8061 27.8534 30 26.439 30H10.561C9.14659 30 8 28.8061 8 27.3333Z" fill="#737373"/>
</g>
</svg>
