<svg width="40" height="48" viewBox="0 0 40 48" fill="none" xmlns="http://www.w3.org/2000/svg">
<g opacity="0.5">
<path d="M6.66685 21.9627C6.66577 21.7338 6.71041 21.5071 6.79816 21.2957C6.8859 21.0843 7.01498 20.8926 7.17783 20.7317C7.50444 20.4055 7.94719 20.2223 8.40882 20.2223C8.87044 20.2223 9.31318 20.4055 9.6398 20.7317L20.0219 31.1138L30.404 20.7317C30.7342 20.424 31.171 20.2565 31.6223 20.2645C32.0736 20.2724 32.5041 20.4553 32.8233 20.7744C33.1424 21.0936 33.3253 21.5242 33.3332 21.9754C33.3412 22.4267 33.1737 22.8635 32.866 23.1937L21.2529 34.8068C20.9263 35.133 20.4835 35.3162 20.0219 35.3162C19.5603 35.3162 19.1175 35.133 18.7909 34.8068L7.17783 23.1937C7.01498 23.0329 6.8859 22.8411 6.79816 22.6298C6.71041 22.4184 6.66577 22.1916 6.66685 21.9627Z" fill="#363636"/>
<path d="M6.66685 13.9627C6.66577 13.7338 6.71041 13.5071 6.79816 13.2957C6.8859 13.0843 7.01498 12.8926 7.17783 12.7317C7.50444 12.4055 7.94719 12.2223 8.40882 12.2223C8.87044 12.2223 9.31318 12.4055 9.6398 12.7317L20.0219 23.1138L30.404 12.7317C30.7342 12.424 31.171 12.2565 31.6223 12.2645C32.0736 12.2724 32.5041 12.4553 32.8233 12.7744C33.1424 13.0936 33.3253 13.5242 33.3332 13.9754C33.3412 14.4267 33.1737 14.8635 32.866 15.1937L21.2529 26.8068C20.9263 27.133 20.4835 27.3162 20.0219 27.3162C19.5603 27.3162 19.1175 27.133 18.7909 26.8068L7.17783 15.1937C7.01498 15.0329 6.8859 14.8411 6.79816 14.6298C6.71041 14.4184 6.66577 14.1916 6.66685 13.9627Z" fill="#363636"/>
</g>
</svg>
